<?xml version="1.0" standalone="no"?>
<!DOCTYPE svg PUBLIC "-//W3C//DTD SVG 20010904//EN"
 "http://www.w3.org/TR/2001/REC-SVG-20010904/DTD/svg10.dtd">
<svg version="1.0" xmlns="http://www.w3.org/2000/svg"
 width="160.000000pt" height="160.000000pt" viewBox="0 0 160.000000 160.000000"
 preserveAspectRatio="xMidYMid meet">
<metadata>
Created by potrace 1.14, written by Peter Selinger 2001-2017
</metadata>
<g transform="translate(0.000000,160.000000) scale(0.100000,-0.100000)"
fill="#000000" stroke="none">
<path d="M1162 1505 c-32 -14 -39 -29 -24 -53 8 -12 23 -15 140 -27 65 -6 105
-26 149 -73 62 -65 67 -159 11 -229 -59 -75 -108 -93 -272 -98 -122 -4 -126
-4 -273 -41 -182 -45 -243 -36 -335 50 -40 38 -49 55 -72 132 -37 123 -45 139
-123 237 -67 85 -95 103 -107 71 -6 -15 -8 -15 -25 0 -15 14 -20 14 -29 3 -11
-13 -10 -25 3 -88 5 -23 1 -27 -34 -39 -46 -15 -80 -46 -86 -80 -3 -13 -22
-42 -44 -64 l-39 -41 14 -40 c8 -21 18 -42 23 -45 4 -3 13 -15 20 -27 8 -16
21 -23 41 -23 55 0 65 -21 96 -194 2 -10 6 -44 9 -75 14 -142 64 -290 116
-342 23 -23 32 -71 31 -164 -1 -109 -30 -155 -106 -167 -32 -5 -43 -34 -22
-57 15 -17 31 -21 76 -21 48 0 60 4 83 27 30 32 72 123 82 177 4 20 10 36 14
36 13 0 49 -135 39 -147 -6 -7 -13 -11 -17 -9 -15 9 -51 -15 -51 -34 0 -26 42
-43 93 -37 68 8 72 18 72 192 0 84 2 155 5 158 3 3 34 8 70 11 36 4 112 15
167 25 56 10 123 18 149 17 46 -1 47 -2 50 -36 1 -19 11 -62 22 -95 28 -87 11
-166 -40 -184 -14 -5 -28 -7 -31 -5 -2 2 -12 -5 -23 -17 -19 -21 -19 -21 5
-40 32 -26 121 -27 144 -1 29 32 88 171 94 221 3 27 9 54 13 61 10 16 195 -72
210 -99 14 -27 13 -104 -2 -119 -7 -7 -24 -12 -40 -12 -26 0 -48 -23 -48 -50
0 -26 122 -46 162 -26 29 15 47 98 45 207 l-2 86 -51 51 c-38 38 -55 63 -64
99 -19 77 -20 82 -21 203 -1 85 -6 128 -20 165 -28 75 -25 98 19 131 161 123
196 281 93 426 -34 47 -103 93 -166 108 -74 18 -156 20 -193 5z"/>
</g>
</svg>
